<?xml version="1.0" standalone="no"?>
<!DOCTYPE svg PUBLIC "-//W3C//DTD SVG 20010904//EN"
 "http://www.w3.org/TR/2001/REC-SVG-20010904/DTD/svg10.dtd">
<svg version="1.0" xmlns="http://www.w3.org/2000/svg"
 width="5209.000000pt" height="5210.000000pt" viewBox="0 0 5209.000000 5210.000000"
 preserveAspectRatio="xMidYMid meet">

<g transform="translate(0.000000,5210.000000) scale(0.100000,-0.100000)"
fill="#000000" stroke="none">
<path d="M15899 45110 c-349 -32 -660 -261 -788 -581 -72 -180 -65 20 -71
-2131 l-5 -1938 -258 398 c-142 218 -322 494 -399 612 -77 118 -183 282 -236
363 -98 152 -176 238 -251 276 -107 55 -271 65 -378 22 -65 -26 -238 -131
-463 -282 -548 -367 -1118 -825 -1763 -1417 -576 -529 -1779 -1778 -1880
-1953 -83 -144 -74 -354 21 -490 17 -24 76 -89 131 -143 l100 -100 -347 -350
c-347 -351 -596 -614 -917 -969 -253 -280 -270 -312 -270 -492 1 -122 19 -186
75 -264 41 -56 1914 -1865 1969 -1902 135 -89 347 -92 493 -6 24 14 137 122
252 241 1013 1050 2164 1895 3281 2407 113 52 151 75 202 123 103 96 157 236
146 377 -8 104 -36 162 -186 389 -373 569 -380 581 -361 600 21 20 303 208
439 292 206 127 579 338 599 338 3 0 6 -1248 6 -2772 l0 -2773 -273 -181
c-157 -105 -318 -222 -382 -276 -662 -570 -1193 -1685 -1534 -3223 -160 -723
-283 -1603 -308 -2211 -10 -231 -10 -724 0 -929 25 -539 115 -1092 256 -1585
22 -74 52 -191 69 -260 126 -533 483 -1032 952 -1332 333 -213 683 -330 1172
-393 l47 -6 3 -892 3 -892 23 -80 c98 -337 351 -585 692 -676 79 -21 110 -23
462 -27 l378 -4 35 -47 c19 -27 55 -67 80 -89 l45 -42 -1853 0 c-1428 0 -1856
-3 -1865 -12 -9 -9 -12 -139 -12 -524 l0 -513 22 -15 c20 -15 592 -16 5882
-16 3223 0 5861 -2 5864 -4 21 -22 214 -780 287 -1131 114 -545 154 -795 396
-2460 38 -264 80 -552 94 -640 13 -88 47 -311 75 -495 317 -2078 596 -3294
891 -3882 48 -96 119 -208 132 -208 5 0 302 63 661 141 358 77 838 181 1066
230 702 152 970 209 979 209 5 0 -4 -41 -20 -90 -16 -50 -29 -99 -29 -110 0
-51 319 -632 598 -1090 504 -828 997 -1478 1478 -1951 195 -190 255 -238 341
-269 80 -29 209 -25 296 9 79 31 168 115 207 194 51 104 117 402 156 697 66
508 -125 1529 -543 2900 -36 118 -66 219 -67 225 0 5 33 16 74 25 52 11 76 21
78 32 4 21 -210 1252 -313 1803 -14 72 -59 315 -100 540 -328 1771 -741 3768
-1051 5079 -30 126 -54 234 -54 240 0 8 818 10 2948 9 l2949 -3 166 -80 c374
-180 741 -323 1195 -466 8 -2 -35 -74 -121 -201 -73 -109 -285 -423 -469 -698
-185 -275 -458 -682 -608 -905 -149 -223 -373 -556 -497 -740 -123 -184 -353
-526 -510 -760 -593 -884 -660 -986 -672 -1022 -30 -91 -5 -209 57 -277 28
-32 390 -245 1566 -926 842 -487 1549 -892 1573 -900 88 -30 198 -12 286 46
40 26 89 94 354 487 168 252 379 565 468 697 89 132 282 420 430 640 148 220
364 542 480 715 117 173 513 763 880 1310 367 547 800 1192 962 1433 162 240
301 453 309 473 18 44 21 135 6 189 -26 91 -65 125 -320 272 l-102 60 127 33
c244 64 582 176 848 282 230 91 514 218 545 245 50 42 206 436 315 796 254
836 385 1758 388 2737 2 374 -8 628 -34 925 -5 61 -12 139 -15 175 -20 238
-69 600 -120 890 -179 1026 -493 2045 -955 3104 -123 282 -133 296 -211 296
-29 0 -52 -13 -127 -71 -173 -133 -466 -343 -691 -494 -1270 -853 -2447 -1367
-3400 -1485 -52 -7 -188 -15 -302 -19 -188 -5 -209 -8 -235 -27 -57 -42 -59
-61 -25 -218 52 -235 71 -362 92 -613 11 -130 15 -654 6 -738 -3 -28 -8 -86
-11 -130 -13 -191 -44 -418 -90 -660 -198 -1043 -659 -2094 -1374 -3130 l-114
-165 -1123 0 c-618 0 -1124 2 -1124 4 0 2 17 15 38 28 20 12 71 51 113 85 l77
62 678 3 679 4 95 26 c190 51 318 127 451 265 137 143 225 316 254 501 11 72
13 944 14 5031 1 2720 3 4946 5 4948 2 2 410 -229 907 -513 497 -284 919 -521
938 -526 72 -20 101 0 242 166 4 5 159 -78 344 -184 407 -233 424 -237 521
-148 51 47 69 77 380 628 290 516 324 575 724 1285 183 325 352 624 375 665
23 41 191 341 375 665 183 325 339 607 346 629 20 54 18 125 -4 161 -14 23
-115 85 -411 254 l-392 224 47 48 c97 99 245 130 377 79 110 -42 200 -157 216
-274 8 -62 24 -86 55 -86 51 0 59 55 26 163 -56 182 -213 306 -400 315 -47 2
-102 0 -121 -6 l-36 -10 102 153 c336 500 502 1077 482 1665 -4 96 -9 189 -11
205 -3 17 -12 82 -21 145 -9 63 -34 183 -55 265 -289 1133 -1252 1974 -2416
2110 -106 12 -301 15 -1116 15 -931 0 -987 1 -992 18 -3 9 -8 33 -11 52 -7 39
-231 -215 2070 2343 382 425 591 665 593 681 2 16 -4 29 -18 39 -19 13 -36 10
-183 -33 -1683 -492 -2928 -852 -2932 -849 -2 3 -6 716 -7 1584 l-3 1580 -27
95 c-51 187 -135 328 -271 456 -159 150 -343 233 -562 253 -112 11 -19648 11
-19766 1z m19892 -117 c257 -73 442 -227 555 -459 89 -183 84 -62 84 -1854 l0
-1575 -422 -123 c-233 -67 -428 -123 -434 -122 -5 0 -59 22 -120 50 l-109 50
-2 1442 -3 1443 -21 18 c-20 16 -199 17 -3483 17 -2155 0 -3467 -4 -3476 -10
-13 -8 -16 -822 -20 -7191 l-5 -7182 -225 -68 c-124 -37 -357 -110 -517 -162
l-293 -94 0 7338 c0 6657 -1 7339 -16 7353 -14 15 -529 16 -5515 16 -3772 0
-5506 -3 -5520 -10 -19 -11 -19 -69 -19 -4215 l0 -4204 -59 -136 c-117 -267
-143 -384 -106 -482 23 -59 73 -115 125 -138 27 -12 40 -24 40 -38 0 -19 -53
-111 -568 -993 l-253 -431 -112 -75 c-62 -41 -124 -83 -140 -92 l-27 -18 2
2768 3 2767 45 25 c25 13 110 53 190 90 80 36 163 76 185 90 200 122 277 391
172 600 -13 26 -153 245 -311 487 l-286 440 2 1990 3 1990 23 80 c94 333 347
569 677 630 57 11 1865 13 9975 12 l9905 -2 76 -22z m-8581 -2088 l0 -875
-168 -167 c-473 -471 -792 -982 -998 -1598 -130 -392 -191 -735 -201 -1137
l-6 -238 -164 0 c-731 0 -1445 -300 -1973 -830 -453 -454 -733 -1035 -812
-1680 -16 -137 -16 -496 0 -630 75 -598 312 -1128 704 -1570 45 -50 77 -95 72
-99 -5 -4 -79 -60 -165 -124 -86 -63 -168 -130 -183 -148 -24 -28 -25 -34 -13
-53 26 -39 52 -32 145 42 48 38 134 103 191 145 l104 75 111 -95 c475 -407
1028 -636 1651 -683 61 -4 112 -8 115 -8 3 0 362 0 798 -1 l792 -1 -2 -2047
-3 -2046 -45 -15 c-543 -176 -1836 -658 -2893 -1078 -241 -96 -440 -174 -443
-174 -2 0 13 28 33 63 101 172 153 350 160 556 l6 145 -25 20 -25 21 424 660
c233 363 447 696 475 740 808 1258 934 1457 956 1515 62 164 9 371 -123 488
-210 185 -522 145 -682 -87 -26 -38 -97 -145 -158 -238 -60 -92 -266 -406
-457 -698 -506 -773 -545 -834 -963 -1475 -209 -322 -432 -665 -495 -762 -117
-184 -122 -188 -175 -168 -62 24 -232 62 -332 75 -134 17 -393 13 -518 -10
-309 -55 -527 -152 -710 -317 -102 -92 -267 -218 -400 -304 -111 -72 -377
-225 -383 -219 -2 2 -12 77 -23 167 -138 1176 -512 2181 -1114 2993 -195 263
-490 581 -729 785 -306 260 -664 496 -1016 667 -129 63 -230 127 -230 146 0 5
12 29 26 54 19 31 32 43 43 39 385 -132 469 -155 749 -201 81 -14 154 -25 163
-25 27 0 247 610 330 915 28 104 47 155 61 166 18 14 32 13 174 -17 192 -40
184 -44 184 104 0 59 2 130 5 157 2 28 9 118 15 200 12 167 11 158 40 380 21
164 55 353 91 508 l21 88 41 -6 c89 -14 229 -70 402 -160 220 -115 298 -145
390 -152 161 -12 262 87 327 322 19 70 22 105 22 285 1 226 -14 326 -74 511
-113 344 -333 606 -591 703 -146 55 -254 71 -524 81 -333 11 -451 25 -589 70
-232 76 -415 217 -616 475 -147 188 -229 258 -378 324 -223 98 -545 114 -743
35 -117 -45 -221 -135 -270 -231 -49 -97 -69 -222 -84 -538 -4 -69 -8 -136
-10 -150 -2 -14 -6 -54 -10 -90 -8 -76 -40 -267 -61 -360 -21 -92 -90 -326
-113 -385 -20 -50 -20 -50 -21 3998 l0 4047 5445 0 5445 0 0 -875z m8030 -516
c0 -1241 -2 -1391 -15 -1385 -36 13 -227 66 -310 85 -166 37 -299 52 -510 58
-236 6 -419 -9 -629 -53 -101 -22 -325 -86 -377 -108 -11 -5 -30 19 -78 99
-78 131 -217 327 -329 465 -114 140 -441 465 -575 572 -657 522 -1389 817
-2217 893 -203 18 -562 13 -760 -11 -325 -39 -603 -101 -875 -195 -63 -21
-119 -39 -125 -39 -7 0 -10 171 -10 505 l0 505 3405 0 3405 0 0 -1391z m-5085
531 c77 -6 154 -12 170 -15 17 -2 53 -7 80 -10 895 -119 1776 -583 2375 -1249
193 -214 395 -490 505 -689 49 -90 60 -95 143 -63 522 199 1164 213 1715 36
l98 -31 -3 -71 -3 -72 -1683 -490 c-1301 -380 -1686 -495 -1694 -510 -7 -12
-7 -25 0 -40 8 -19 93 -46 623 -201 338 -98 702 -204 808 -235 l195 -57 308
-804 c169 -442 312 -814 317 -826 7 -16 19 -23 39 -23 24 0 101 75 529 518
276 284 524 539 551 566 l50 48 570 -166 c314 -91 577 -163 585 -160 9 3 120
123 249 266 l233 260 10 -41 c5 -22 15 -45 20 -50 7 -7 340 -11 1005 -12 1029
-1 1105 -3 1335 -44 348 -62 717 -209 1012 -405 159 -106 263 -190 402 -325
467 -453 755 -1043 820 -1684 14 -133 14 -417 0 -557 -48 -490 -238 -971 -543
-1373 -68 -90 -191 -233 -206 -239 -9 -4 -380 208 -380 218 0 16 103 103 148
123 37 17 66 22 137 22 79 0 97 -3 150 -29 83 -41 114 -35 115 21 0 27 -36 53
-110 81 -83 30 -154 36 -238 18 -94 -20 -163 -57 -235 -128 -32 -32 -61 -58
-63 -58 -5 0 -426 240 -434 247 -10 9 101 103 148 124 38 18 66 23 142 23 84
1 101 -2 149 -27 65 -32 96 -34 111 -7 18 34 2 57 -60 89 -177 88 -380 52
-522 -92 l-58 -59 -215 122 c-118 67 -215 128 -215 135 0 19 73 81 132 111 41
21 72 28 134 32 71 4 88 1 145 -23 84 -35 106 -40 124 -25 55 46 -37 117 -184
142 -140 24 -284 -26 -386 -133 -45 -47 -62 -59 -75 -52 -61 29 -420 239 -420
246 0 18 87 92 139 116 48 22 69 26 151 26 85 0 102 -3 149 -27 58 -31 81 -34
99 -16 75 75 -175 177 -339 138 -91 -22 -160 -60 -227 -127 l-64 -63 -203 116
c-112 63 -211 121 -220 128 -15 11 -11 18 39 63 79 73 146 96 256 91 68 -4 96
-10 139 -32 59 -30 96 -29 106 4 10 31 -11 56 -67 84 -175 85 -376 50 -515
-90 l-62 -63 -215 122 c-119 67 -216 127 -216 134 0 22 101 102 157 123 77 29
180 29 255 1 32 -12 60 -27 63 -32 13 -20 55 -9 67 17 15 33 4 52 -51 83 -169
94 -385 57 -532 -91 l-56 -56 -66 38 c-116 67 -176 70 -234 11 -15 -15 -539
-620 -1163 -1344 l-1135 -1316 -3317 -1 -3318 0 0 4664 0 4664 83 32 c309 118
619 185 1082 233 83 8 437 7 560 -3z m-16316 -894 c95 -49 97 -52 383 -491 25
-38 231 -356 458 -705 227 -349 535 -822 683 -1050 149 -228 279 -435 291
-460 16 -35 20 -65 20 -135 0 -78 -3 -98 -28 -153 -44 -95 -115 -155 -262
-221 -388 -173 -867 -443 -1294 -729 -85 -57 -159 -104 -163 -105 -4 -1 -46
57 -93 128 -166 254 -246 377 -629 965 -216 333 -407 616 -433 643 -87 89
-242 146 -362 133 -93 -9 -150 -32 -287 -115 -633 -380 -1492 -1062 -2265
-1798 -65 -62 -122 -113 -126 -113 -20 1 -223 213 -245 257 -39 76 -52 160
-37 235 19 97 47 141 206 318 1196 1334 2387 2422 3404 3111 174 118 393 256
458 288 87 44 230 43 321 -3z m25609 -163 c-14 -16 -690 -768 -1503 -1673
-813 -905 -1493 -1661 -1511 -1680 l-34 -34 -152 44 c-84 24 -342 99 -573 166
-231 68 -601 176 -822 241 -221 64 -400 120 -397 124 2 4 73 45 157 92 83 46
494 274 912 507 1634 909 2087 1161 2540 1412 259 144 476 268 483 276 19 24
14 50 -11 67 -23 14 -36 10 -258 -84 -129 -54 -1138 -480 -2244 -946 -1105
-466 -2039 -859 -2075 -875 -246 -106 -431 -180 -447 -180 -10 0 -311 85 -668
189 -358 104 -676 197 -708 206 -32 9 -57 18 -55 20 2 2 1133 333 2513 735
1381 403 3039 887 3685 1075 646 189 1179 344 1184 344 6 1 -2 -11 -16 -26z
m-12238 -4258 l0 -4275 -824 0 c-841 0 -925 3 -1154 41 -482 80 -980 322
-1354 658 -39 34 -48 49 -44 66 7 28 -25 60 -53 52 -38 -10 -215 195 -367 424
-215 325 -359 707 -420 1111 -22 146 -30 486 -15 633 83 818 506 1539 1171
1997 471 325 975 480 1585 487 119 1 174 6 183 14 9 9 13 78 17 247 3 129 7
249 9 265 3 17 10 75 16 130 77 705 377 1420 836 1995 103 128 387 430 406
430 4 0 8 -1924 8 -4275z m10435 3337 c-6 -5 -176 -101 -380 -214 -203 -113
-930 -517 -1615 -898 -685 -381 -1273 -708 -1307 -727 -35 -19 -66 -39 -69
-45 -4 -6 -22 -144 -40 -307 -19 -163 -43 -371 -54 -463 -25 -206 -25 -194 4
-213 33 -22 63 -6 71 38 3 17 28 217 54 442 26 226 52 410 57 409 38 -4 794
-230 792 -236 -5 -13 -979 -1018 -987 -1018 -3 0 -132 330 -285 733 -154 402
-286 746 -292 763 l-13 30 577 244 c870 366 953 401 2262 955 668 282 1219
513 1225 514 6 1 6 -2 0 -7z m-2250 -107 l40 -17 -35 -13 c-54 -21 -60 -19
-60 21 0 19 3 33 8 31 4 -3 25 -13 47 -22z m-22838 -1100 c28 -8 77 -35 110
-59 60 -45 58 -42 356 -501 176 -271 238 -366 637 -980 703 -1079 749 -1151
767 -1196 12 -30 18 -70 18 -129 0 -75 -4 -93 -32 -152 -38 -81 -101 -146
-174 -180 -30 -14 -124 -58 -209 -98 -561 -262 -1240 -688 -1828 -1147 -431
-336 -757 -627 -1207 -1076 -319 -319 -367 -363 -425 -391 -57 -27 -75 -31
-150 -31 -136 0 -180 26 -388 227 -1596 1540 -1742 1683 -1772 1740 -59 110
-61 230 -5 343 14 29 93 126 186 230 1106 1229 2202 2246 3154 2929 311 223
650 440 735 469 58 20 162 21 227 2z m24990 -3837 c68 -39 74 -45 68 -68 -4
-14 -9 -68 -12 -120 -4 -80 -2 -105 16 -158 27 -79 60 -132 116 -187 84 -81
155 -93 155 -25 0 24 -8 35 -38 54 -52 33 -100 90 -131 156 -21 46 -26 70 -26
142 0 49 5 92 11 98 7 7 73 -25 227 -112 187 -106 216 -126 212 -143 -3 -11
-11 -48 -17 -82 -29 -164 67 -370 206 -444 44 -23 45 -23 65 -5 32 29 25 51
-31 96 -108 86 -154 186 -146 317 3 40 8 76 11 79 5 5 127 -61 379 -207 l66
-39 -15 -47 c-20 -65 -12 -200 16 -273 31 -80 87 -156 149 -201 64 -45 85 -48
108 -15 19 31 12 45 -43 85 -90 65 -143 168 -144 281 -1 58 8 120 16 120 7 0
411 -234 423 -245 11 -9 11 -21 3 -51 -48 -181 24 -381 174 -484 47 -32 74
-37 93 -18 24 24 10 51 -67 126 -73 71 -81 83 -101 151 -17 56 -21 88 -17 138
3 36 9 69 13 73 12 11 440 -236 437 -252 -1 -7 -8 -43 -15 -81 -30 -165 50
-349 194 -444 46 -31 79 -27 93 11 9 26 7 31 -19 50 -67 48 -105 89 -136 148
-27 51 -34 77 -38 138 -2 41 0 90 4 107 l9 33 221 -126 221 -127 -13 -45 c-34
-112 -7 -272 63 -372 45 -65 135 -140 166 -140 53 0 67 69 19 94 -37 19 -106
94 -130 143 -29 56 -43 148 -33 211 4 29 10 54 12 56 3 3 395 -216 406 -227 1
-2 -4 -35 -12 -74 -35 -166 33 -352 162 -445 62 -45 76 -50 102 -32 34 24 27
60 -17 88 -52 33 -100 90 -131 156 -22 46 -26 69 -26 142 0 50 5 92 11 98 8 8
110 -45 380 -200 203 -116 375 -218 382 -227 6 -9 12 -22 12 -28 0 -6 -194
-236 -431 -510 -237 -275 -438 -510 -446 -523 -24 -35 -3 -74 36 -70 25 3 76
58 326 348 164 190 300 347 303 350 7 6 -7 -18 -225 -405 -99 -176 -290 -513
-423 -750 -133 -236 -315 -558 -403 -715 -88 -157 -186 -330 -217 -385 -31
-55 -97 -172 -147 -260 -545 -969 -552 -979 -597 -991 -13 -3 -35 0 -48 6 -75
39 -638 364 -638 369 0 3 264 312 588 687 323 374 749 868 947 1098 198 229
364 426 369 437 14 30 -25 67 -58 54 -13 -6 -466 -523 -1006 -1150 -1204
-1396 -1108 -1288 -1135 -1283 -12 3 -204 109 -426 236 -2740 1565 -3696 2115
-3708 2132 -18 26 -23 19 216 295 109 127 540 626 958 1110 417 484 1038 1203
1378 1598 341 394 626 717 635 717 8 0 48 -19 89 -42z m-19140 -96 c300 -61
574 -202 794 -410 l36 -34 -32 -101 c-128 -395 -200 -869 -221 -1442 -3 -104
-8 -192 -10 -194 -2 -2 -65 14 -140 37 -156 47 -139 49 -251 -35 l-71 -54 -99
30 c-472 148 -829 351 -888 505 -16 43 -17 55 -6 108 36 174 178 589 368 1077
74 191 94 250 89 274 -3 17 -26 81 -51 143 -25 62 -45 114 -45 116 0 2 96 3
213 2 172 -1 231 -5 314 -22z m-1097 -198 c73 -62 103 -175 104 -401 1 -89 -3
-165 -7 -170 -15 -15 -160 -7 -216 12 -72 24 -142 92 -165 162 -48 143 11 339
119 400 57 32 124 31 165 -3z m-820 -975 c106 -16 171 -43 229 -95 67 -60 101
-131 108 -226 7 -90 -8 -171 -77 -409 -65 -224 -86 -365 -71 -466 6 -40 20
-98 30 -128 59 -167 262 -365 509 -496 34 -18 62 -35 62 -39 0 -3 -18 -36 -40
-75 -23 -38 -40 -78 -38 -89 2 -12 37 -44 88 -80 125 -87 264 -231 348 -359
80 -123 141 -255 122 -267 -36 -22 -500 -39 -730 -27 -650 33 -1293 222 -1860
545 -107 61 -338 210 -387 249 -21 18 -17 21 340 260 l362 243 424 727 c234
401 429 734 434 741 6 7 22 10 41 8 17 -3 65 -11 106 -17z m18474 -1411 c-5
-7 -179 -211 -388 -452 -208 -242 -385 -451 -392 -465 -18 -34 -18 -95 1 -130
18 -36 -5 -22 567 -348 l487 -278 1 -4629 c0 -4404 -1 -4628 -17 -4621 -119
50 -249 75 -390 75 l-63 0 0 238 c0 172 -3 241 -12 250 -9 9 -379 12 -1605 12
-1564 0 -1592 0 -1603 -19 -7 -13 -10 -267 -10 -755 l0 -736 -779 0 -779 0
175 298 c655 1109 1226 2151 1707 3112 399 799 608 1257 833 1824 423 1068
561 1781 418 2162 -54 144 -294 482 -474 666 -176 182 -306 280 -496 376 -458
229 -1011 259 -1960 107 -409 -66 -1075 -206 -1503 -315 -128 -33 -238 -60
-243 -60 -5 0 -9 710 -9 1850 l0 1850 3271 0 c2613 0 3269 -3 3263 -12z
m-20117 -711 c628 -420 1321 -662 2078 -726 159 -14 634 -5 795 13 105 13 139
21 154 35 19 19 19 21 -9 98 -45 128 -147 314 -208 381 -11 12 -17 22 -13 22
17 0 251 -139 399 -237 408 -270 781 -615 1094 -1010 645 -813 1055 -1899
1186 -3140 l13 -122 -155 -75 c-210 -101 -371 -170 -651 -281 -528 -209 -822
-309 -2470 -839 -300 -96 -637 -206 -750 -245 -113 -38 -206 -69 -207 -68 -2
3 -7 79 -73 1017 -33 470 -62 884 -65 920 -14 178 -25 336 -25 357 0 23 -32
63 -50 63 -5 0 -19 -9 -31 -21 -17 -17 -20 -29 -15 -67 3 -26 8 -90 11 -142 3
-52 8 -115 10 -140 2 -25 7 -83 10 -130 3 -47 12 -179 20 -295 8 -115 22 -309
30 -430 8 -121 18 -249 20 -285 5 -64 30 -418 41 -575 3 -44 9 -129 13 -190 5
-60 6 -113 2 -116 -3 -3 -91 -37 -196 -74 -1404 -501 -2309 -1001 -2815 -1554
-99 -108 -82 -123 -145 124 -237 918 -280 1990 -129 3175 291 2287 976 3970
1882 4622 36 26 70 48 73 48 4 0 83 -51 176 -113z m10699 -441 c77 -35 145
-103 180 -180 37 -80 40 -205 8 -276 -20 -42 -74 -128 -521 -825 -323 -503
-1114 -1738 -1162 -1812 -25 -40 -85 -133 -132 -206 l-86 -133 -79 -12 c-157
-24 -262 -32 -454 -32 -216 0 -364 15 -356 36 9 24 729 1131 1666 2561 427
653 519 789 551 819 100 94 258 118 385 60z m10348 -896 l535 -305 -2 -5025
-2 -5025 -23 -73 c-99 -320 -347 -547 -661 -606 -70 -13 -179 -16 -687 -16
l-603 0 49 65 c130 172 218 373 253 580 l13 80 145 6 c123 5 155 10 217 33
111 41 189 92 273 175 184 184 262 444 215 712 -27 149 -93 274 -203 386 l-73
73 0 4626 c0 2996 3 4624 10 4622 5 -1 250 -140 544 -308z m-13368 -2554 c39
-8 129 -30 200 -50 198 -55 288 -67 515 -73 217 -6 402 8 598 46 l93 18 -7
-76 c-8 -87 -15 -99 -97 -146 -253 -148 -599 -223 -1068 -230 -118 -2 -218 -4
-223 -4 -4 -1 -13 -12 -19 -26 -9 -21 -8 -28 7 -45 17 -19 31 -20 219 -20 442
0 790 66 1060 202 l79 40 -7 -34 c-11 -56 -124 -275 -161 -312 -164 -165 -621
-286 -1076 -286 -75 0 -101 -4 -113 -16 -31 -30 -11 -70 39 -80 54 -10 394 13
530 36 132 22 274 59 375 96 l65 24 -40 -35 c-177 -158 -360 -280 -604 -403
-251 -128 -554 -243 -822 -312 l-85 -22 -50 -82 c-415 -687 -1138 -1537 -1819
-2141 -1335 -1184 -2853 -1875 -4405 -2004 -156 -13 -583 -5 -735 13 -778 95
-1356 430 -1728 1001 -122 187 -230 429 -284 637 -24 88 -25 101 -12 126 25
49 361 375 484 470 495 382 1171 728 2120 1084 452 170 943 335 1905 643 789
252 1327 431 1658 551 1053 382 1705 718 2142 1103 109 96 152 127 245 174
134 67 320 121 505 147 93 13 431 4 516 -14z m6828 -618 c9 -25 -1 -37 -166
-210 -1009 -1053 -1957 -2383 -2571 -3606 l-102 -204 -43 5 c-24 3 -45 7 -48
10 -18 17 332 674 573 1075 598 999 1417 2071 2142 2805 128 129 160 157 181
155 16 -2 28 -12 34 -30z m13348 -585 c324 -702 638 -1594 832 -2368 142 -567
260 -1243 302 -1720 3 -44 8 -88 10 -98 2 -10 11 -131 20 -270 24 -357 24
-1285 0 -1437 -3 -14 -7 -70 -11 -125 -56 -856 -309 -1946 -601 -2584 l-35
-76 -152 -69 c-250 -113 -507 -213 -772 -302 -236 -78 -607 -184 -647 -184
-11 0 -72 31 -136 69 -64 38 -515 299 -1002 581 -487 282 -984 570 -1105 640
-370 215 -395 228 -447 240 -101 25 -228 -12 -299 -87 -20 -21 -153 -211 -295
-423 -539 -804 -594 -885 -608 -894 -26 -18 -524 154 -871 301 -342 145 -945
464 -945 501 0 7 69 99 154 205 857 1072 1434 2156 1740 3269 103 376 170 733
212 1143 23 214 26 822 6 1015 -19 180 -58 428 -88 553 -15 60 -22 112 -18
117 5 4 90 10 189 13 1000 33 2275 545 3685 1480 223 148 540 373 714 506 66
50 121 91 123 91 3 0 23 -39 45 -87z m-18897 -3058 c176 -21 760 -94 915 -115
36 -5 135 -19 220 -30 192 -26 684 -101 925 -141 1714 -286 2757 -610 3113
-967 181 -181 400 -615 622 -1235 44 -123 46 -160 10 -172 -32 -10 -54 10 -74
67 -114 323 -235 618 -345 838 -197 394 -308 510 -656 680 -419 204 -1112 399
-2080 585 -222 43 -804 143 -955 165 -36 5 -200 30 -365 54 -309 46 -938 129
-1265 166 -232 26 -228 26 -242 55 -9 21 -8 28 7 45 22 24 10 24 170 5z
m10873 -1819 c1 -140 7 -244 12 -251 7 -8 64 -14 168 -18 176 -6 237 -19 346
-74 88 -44 198 -153 243 -238 64 -122 78 -185 77 -340 0 -124 -3 -149 -27
-220 -69 -207 -218 -359 -411 -421 -67 -21 -107 -27 -236 -31 -85 -3 -160 -10
-166 -14 -6 -5 -14 -39 -18 -75 -28 -271 -160 -540 -365 -744 -149 -147 -303
-242 -495 -305 -180 -58 -203 -60 -651 -60 -444 0 -473 3 -652 61 -365 118
-677 431 -797 797 -63 193 -60 130 -63 1200 l-4 977 1518 -2 1518 -3 3 -239z
m-18748 52 c0 -7 9 -74 20 -148 145 -1001 333 -1778 536 -2207 l53 -113 -317
0 c-351 1 -415 8 -547 59 -111 43 -217 115 -305 208 -132 140 -210 307 -230
494 -5 54 -10 440 -10 895 l0 801 268 1 c147 1 301 5 342 10 135 14 190 14
190 0z m15610 -1477 c0 -267 29 -444 104 -628 37 -91 120 -234 182 -315 l36
-48 -889 0 -890 0 -37 138 c-46 168 -187 663 -215 751 l-20 64 56 94 55 93
809 0 809 0 0 -149z m412 -1091 c4 0 30 -20 57 -44 28 -25 78 -64 111 -88 l62
-43 -1008 -3 c-554 -1 -1011 1 -1014 5 -4 5 -15 37 -24 73 -10 36 -19 73 -22
82 -3 10 2 18 12 20 12 2 1474 1 1826 -2z m-7582 -160 c11 -20 8 -20 -227 -19
l-238 2 205 17 c113 9 215 18 227 19 13 0 27 -7 33 -19z m-7207 -134 c236 -41
567 -70 947 -83 418 -15 1954 -7 2300 12 36 2 162 6 280 9 118 4 242 9 275 11
33 3 125 7 205 10 208 8 712 33 1015 50 196 11 504 15 1251 15 l991 0 38 -82
c70 -154 163 -392 234 -600 l70 -208 -5819 0 -5820 0 -2 435 c-2 239 -1 440 0
445 3 7 665 10 1948 10 l1945 0 142 -24z m15283 -6 c182 -64 244 -72 632 -77
459 -7 612 9 810 83 l62 24 1175 0 c646 0 1175 -3 1175 -7 0 -10 -124 -172
-282 -369 -180 -224 -178 -221 -178 -267 0 -53 40 -91 185 -176 l120 -71
-2871 0 -2871 0 -107 433 c-60 237 -110 438 -113 445 -4 9 218 12 1087 12
l1092 0 84 -30z m6844 -294 c179 -104 327 -190 329 -192 2 -2 -10 -25 -27 -51
-46 -72 -62 -117 -62 -174 0 -125 47 -186 225 -287 66 -38 361 -209 657 -380
295 -171 553 -315 575 -321 84 -24 188 -4 261 48 22 17 59 58 82 91 l41 61 32
-19 c18 -11 163 -95 322 -187 160 -92 301 -177 314 -189 31 -27 61 -92 61
-134 0 -18 -7 -48 -15 -68 -13 -32 -263 -408 -1154 -1733 -202 -300 -532 -791
-733 -1091 -1855 -2763 -1924 -2865 -1967 -2895 -35 -25 -54 -30 -114 -33 -82
-4 -71 -9 -337 145 -1050 608 -2004 1161 -2080 1205 -571 330 -729 424 -752
446 -41 38 -62 101 -53 158 5 37 34 87 149 258 78 116 295 438 481 716 186
278 402 600 480 715 78 116 267 397 420 625 153 228 365 543 470 700 105 157
317 472 470 700 153 228 342 510 420 625 78 116 298 444 490 730 475 709 445
668 508 700 44 22 62 26 117 23 64 -4 70 -7 390 -192z m1175 -730 c40 -17 55
-42 55 -90 0 -103 -160 -132 -200 -36 -18 44 4 99 50 122 42 22 51 22 95 4z
m-8757 -7708 c6 -18 46 -153 91 -300 268 -887 444 -1663 505 -2217 19 -171 20
-454 1 -591 -32 -241 -98 -538 -137 -619 -64 -132 -231 -208 -370 -167 -80 23
-157 84 -357 284 -461 461 -909 1054 -1403 1857 -249 406 -608 1048 -608 1089
0 20 59 208 69 218 4 4 457 105 1006 224 550 119 1036 224 1080 234 111 25
113 25 123 -12z"/>
<path d="M27669 35070 c-187 -5 -209 -11 -209 -55 0 -45 10 -47 322 -39 241 5
296 9 311 22 22 19 22 45 -1 65 -19 18 -57 18 -423 7z"/>
<path d="M24590 41488 c-3 -3 -117 -8 -255 -12 -226 -5 -468 -17 -630 -30 -33
-3 -94 -8 -135 -11 -101 -8 -297 -25 -340 -30 -19 -2 -64 -7 -100 -10 -1076
-105 -2367 -380 -3433 -731 -182 -61 -202 -74 -172 -120 8 -13 20 -24 26 -24
6 0 102 30 213 66 1022 333 2172 580 3251 699 317 35 297 33 520 50 110 8 223
17 250 20 28 2 109 7 180 11 72 3 204 10 295 14 186 9 1260 5 1446 -6 117 -6
121 -6 136 15 23 33 12 59 -31 70 -20 5 -106 12 -191 15 -242 9 -1024 19
-1030 14z"/>
<path d="M18620 40273 c-292 -118 -466 -195 -482 -214 -12 -14 -15 -27 -9 -41
15 -42 41 -39 192 26 79 34 219 93 312 131 140 57 168 72 173 92 7 26 -7 48
-34 55 -10 3 -78 -19 -152 -49z"/>
<path d="M22905 33413 c-126 -132 -348 -434 -343 -467 3 -23 46 -48 64 -38 7
4 43 50 80 102 80 113 158 212 231 296 57 66 68 105 34 124 -29 15 -38 13 -66
-17z"/>
<path d="M22279 32488 c-28 -46 -132 -263 -186 -387 -53 -125 -55 -164 -7
-169 37 -4 41 1 84 103 18 44 71 158 117 254 45 96 83 181 83 191 0 49 -61 54
-91 8z"/>
<path d="M21892 31483 c-24 -21 -62 -180 -93 -388 -25 -171 -25 -210 2 -228
20 -15 55 -12 65 4 3 5 8 31 10 57 18 180 60 418 90 514 5 17 -27 58 -45 58
-5 0 -18 -8 -29 -17z"/>
<path d="M21835 30384 c-20 -20 -15 -43 31 -173 39 -110 109 -236 179 -323 52
-64 83 -80 111 -58 25 21 16 48 -41 123 -70 91 -135 217 -176 338 -17 52 -36
97 -43 101 -18 13 -44 9 -61 -8z"/>
<path d="M33918 36758 c-10 -8 -27 -59 -42 -120 -28 -117 -82 -270 -127 -360
-34 -68 -37 -103 -9 -118 38 -21 60 -2 100 84 69 148 150 407 150 478 0 40
-41 60 -72 36z"/>
<path d="M33346 35751 c-90 -79 -220 -170 -322 -229 -46 -26 -86 -55 -89 -64
-10 -28 13 -58 42 -58 76 0 503 306 503 360 0 23 -26 50 -48 50 -9 0 -48 -27
-86 -59z"/>
<path d="M32365 35255 c-65 -20 -314 -77 -438 -101 -17 -4 -33 -16 -39 -30
-10 -21 -8 -28 10 -46 l21 -22 98 18 c103 19 419 97 465 115 31 12 43 42 28
71 -14 26 -44 25 -145 -5z"/>
<path d="M28582 35068 c-16 -16 -15 -53 1 -66 7 -5 136 -13 308 -17 l296 -7
17 23 c21 30 20 35 -4 59 -19 19 -33 20 -313 20 -215 0 -296 -3 -305 -12z"/>
<path d="M31165 35070 c-55 -4 -158 -10 -230 -14 -136 -6 -155 -13 -155 -57 0
-39 22 -42 215 -35 203 7 381 21 408 32 22 8 33 50 17 69 -14 17 -79 18 -255
5z"/>
<path d="M29685 35037 c-13 -20 -14 -30 -5 -46 6 -12 14 -21 18 -22 4 0 14 -2
22 -3 8 -2 137 -6 287 -10 291 -8 313 -5 313 39 0 49 -19 55 -178 55 -81 0
-213 3 -293 7 l-147 6 -17 -26z"/>
<path d="M26740 35020 c-107 -10 -231 -22 -274 -26 -56 -5 -85 -13 -98 -26
-23 -23 -23 -30 0 -58 18 -22 20 -22 127 -11 61 6 126 13 145 16 19 2 69 7
110 10 241 18 250 20 250 60 0 23 -33 56 -55 54 -5 -1 -98 -9 -205 -19z"/>
<path d="M25685 34876 c-390 -80 -431 -94 -418 -147 10 -35 40 -37 162 -7 64
15 188 42 276 59 88 17 168 35 178 40 24 13 21 55 -5 73 -12 9 -25 16 -28 15
-3 0 -77 -15 -165 -33z"/>
<path d="M24750 34623 c-83 -30 -354 -140 -422 -172 -92 -43 -116 -67 -99
-100 19 -35 41 -32 164 23 67 30 187 80 267 111 80 31 151 61 158 67 15 13 16
50 0 66 -12 12 -42 15 -68 5z"/>
<path d="M12548 39210 c-11 -7 -147 -402 -403 -1173 -277 -829 -400 -1187
-432 -1249 -118 -230 -307 -402 -548 -499 -81 -32 -192 -58 -365 -84 -58 -8
-148 -22 -200 -30 -108 -17 -1151 -174 -1400 -211 -541 -81 -543 -81 -557
-100 -17 -23 -17 -27 5 -55 l19 -22 109 16 c60 9 379 57 709 107 330 49 643
97 695 105 52 8 260 40 462 70 202 31 407 67 455 81 307 89 568 306 713 594
36 71 810 2381 810 2417 0 12 -9 27 -19 33 -24 12 -31 12 -53 0z"/>
<path d="M36687 34677 c-37 -37 -561 -648 -570 -663 -5 -8 -6 -22 -3 -32 6
-17 782 -468 822 -478 10 -2 24 -1 30 3 20 15 580 668 586 685 4 10 0 26 -10
37 -19 23 -800 471 -820 471 -7 0 -23 -10 -35 -23z m451 -317 c160 -91 290
-168 289 -172 -1 -3 -113 -135 -248 -291 l-247 -286 -346 197 c-190 108 -344
200 -343 205 1 4 112 135 247 291 l245 284 56 -31 c30 -18 186 -106 347 -197z"/>
<path d="M37369 33843 c-327 -379 -324 -374 -310 -401 15 -27 791 -472 824
-472 22 0 74 56 316 336 196 226 291 343 291 358 0 13 -8 30 -17 38 -34 30
-793 458 -812 458 -12 0 -115 -111 -292 -317z m653 11 c189 -108 345 -198 346
-199 6 -5 -489 -575 -499 -575 -10 0 -641 359 -672 382 -17 13 2 37 230 301
136 158 248 287 249 287 2 0 157 -88 346 -196z"/>
<path d="M35738 33583 c-327 -379 -323 -375 -310 -399 13 -24 800 -474 829
-474 16 0 94 83 301 323 154 178 287 335 296 350 13 19 15 31 8 44 -13 23
-800 473 -829 473 -15 0 -96 -87 -295 -317z m651 15 c185 -105 340 -194 344
-198 7 -6 -372 -457 -468 -559 l-23 -24 -346 198 c-237 135 -343 201 -338 209
12 20 486 566 491 566 2 0 155 -86 340 -192z"/>
<path d="M38303 33298 c-154 -177 -287 -335 -297 -350 -13 -20 -15 -32 -7 -45
13 -25 797 -473 826 -473 33 0 599 656 603 699 3 28 -6 34 -395 257 -219 125
-410 230 -424 232 -24 3 -55 -29 -306 -320z m654 21 c175 -101 326 -188 336
-194 15 -11 -10 -43 -228 -296 -135 -156 -252 -283 -260 -283 -13 1 -661 368
-678 384 -12 11 483 582 500 576 7 -3 156 -87 330 -187z"/>
<path d="M36667 33033 c-156 -181 -288 -337 -294 -347 -6 -10 -8 -27 -6 -36 5
-20 802 -480 831 -480 12 0 116 112 293 317 327 378 324 374 310 401 -14 26
-794 472 -826 472 -19 0 -79 -64 -308 -327z m665 26 c183 -105 336 -194 341
-198 5 -5 -391 -478 -478 -569 -10 -11 -72 20 -356 183 -189 109 -346 199
-347 201 -6 4 489 574 499 574 5 0 158 -86 341 -191z"/>
<path d="M39522 33074 c-19 -13 -568 -643 -586 -672 -4 -7 -5 -21 -1 -32 7
-22 800 -480 832 -480 13 0 115 111 308 336 246 285 290 341 290 367 0 31 -8
36 -395 257 -218 125 -403 229 -412 232 -9 4 -25 0 -36 -8z m387 -300 c179
-102 329 -189 333 -193 5 -4 -431 -523 -487 -579 -6 -6 -695 392 -693 399 2 4
113 134 246 289 178 205 248 280 260 275 8 -3 162 -89 341 -191z"/>
<path d="M37889 32818 c-28 -23 -575 -662 -582 -680 -3 -10 1 -26 11 -38 19
-23 798 -470 819 -470 8 0 25 12 40 28 53 56 558 645 566 659 5 8 3 23 -6 36
-14 21 -773 463 -813 473 -10 3 -26 -1 -35 -8z m449 -333 c155 -88 282 -162
282 -165 0 -13 -495 -575 -504 -572 -27 8 -685 388 -683 394 1 4 112 135 247
291 l245 285 66 -37 c36 -20 192 -108 347 -196z"/>
<path d="M38545 31954 c-160 -184 -294 -342 -298 -350 -4 -7 -3 -22 2 -33 6
-10 178 -115 383 -232 459 -263 436 -251 459 -238 25 13 599 678 599 693 0 7
-6 19 -12 28 -19 22 -804 468 -826 468 -11 0 -127 -127 -307 -336z m673 26
c188 -107 341 -198 339 -201 -5 -16 -488 -569 -496 -569 -14 0 -682 384 -684
393 -2 10 486 578 494 574 3 -1 160 -90 347 -197z"/>
<path d="M33227 24922 c-10 -10 -17 -22 -17 -27 0 -4 20 -52 45 -106 57 -125
74 -219 56 -316 -18 -96 -63 -203 -131 -313 -73 -116 -134 -239 -149 -302 -38
-157 10 -323 130 -453 60 -66 104 -90 135 -76 43 19 32 55 -41 123 -47 44 -75
81 -102 135 -34 69 -37 82 -36 156 1 107 25 172 113 312 199 317 230 524 114
775 -51 111 -80 133 -117 92z"/>
<path d="M42085 26189 c-88 -68 -449 -302 -600 -389 -749 -433 -1729 -823
-2640 -1050 -218 -55 -253 -70 -240 -109 13 -41 34 -42 185 -5 815 196 1774
558 2490 939 359 192 877 524 909 584 13 24 -12 61 -42 61 -12 0 -40 -14 -62
-31z"/>
<path d="M42475 25165 c-648 -424 -1421 -751 -2245 -950 -163 -40 -197 -57
-185 -94 13 -43 34 -43 206 0 852 209 1659 551 2272 961 113 76 118 81 115
111 -3 28 -7 32 -33 35 -23 1 -55 -14 -130 -63z"/>
<path d="M39310 24039 c-104 -16 -445 -48 -570 -55 -106 -5 -128 -9 -142 -25
-19 -22 -13 -56 13 -69 10 -6 44 -8 76 -5 32 2 103 7 158 10 114 7 423 40 522
55 75 12 93 23 93 54 0 46 -31 53 -150 35z"/>
<path d="M42580 23951 c-958 -432 -1944 -680 -3010 -756 -191 -14 -834 -13
-941 0 -60 8 -89 -7 -89 -45 0 -39 38 -49 216 -59 153 -9 657 -6 744 3 19 3
80 7 135 10 897 55 1944 310 2827 690 290 124 347 154 354 181 7 27 1 41 -24
54 -13 7 -66 -12 -212 -78z"/>
<path d="M42885 22936 c-69 -30 -385 -139 -551 -190 -683 -211 -1342 -332
-2094 -386 -194 -14 -769 -20 -955 -10 -312 17 -567 43 -779 80 -66 11 -128
18 -138 14 -29 -9 -35 -54 -10 -74 30 -24 292 -65 612 -96 226 -21 938 -30
1197 -15 846 51 1660 209 2438 475 316 108 354 124 362 154 4 19 1 30 -17 44
-26 21 -26 21 -65 4z"/>
<path d="M42849 21730 c-8 -5 -123 -45 -255 -89 -332 -111 -678 -195 -1009
-246 -132 -21 -145 -26 -145 -66 0 -44 25 -48 164 -27 381 57 808 167 1179
302 106 39 142 57 148 73 16 43 -38 79 -82 53z"/>
<path d="M38112 21618 c-19 -19 -14 -56 11 -72 25 -16 185 -62 352 -101 281
-67 641 -131 920 -165 94 -11 188 -22 210 -25 216 -27 975 -57 1058 -41 59 11
77 80 24 90 -12 3 -175 7 -362 10 -427 6 -753 33 -1171 96 -282 43 -733 140
-933 201 -73 22 -93 23 -109 7z"/>
<path d="M33009 21985 c-207 -52 -376 -207 -447 -407 -34 -97 -42 -254 -18
-348 46 -181 170 -341 326 -420 140 -71 339 -87 483 -37 415 144 567 636 304
982 -76 101 -174 170 -307 217 -73 26 -261 34 -341 13z m312 -105 c221 -68
369 -275 369 -515 0 -142 -52 -266 -156 -369 -280 -281 -750 -170 -882 208
-20 57 -25 90 -25 166 1 155 47 269 156 379 81 82 191 136 312 155 54 8 160
-3 226 -24z"/>
<path d="M34698 21950 c-17 -10 -18 -38 -18 -346 l0 -334 28 -11 c16 -6 72 -9
137 -7 139 5 209 33 285 114 73 77 93 129 94 239 1 77 -3 98 -26 147 -34 73
-103 142 -176 176 -51 24 -71 27 -182 30 -77 1 -132 -2 -142 -8z m305 -123
c146 -86 169 -287 46 -404 -51 -48 -96 -63 -194 -63 l-85 0 0 251 0 251 93 -4
c79 -3 100 -8 140 -31z"/>
<path d="M38582 18808 c-45 -68 -78 -126 -74 -129 6 -6 2629 -1526 2774 -1608
l55 -31 81 122 c63 95 79 125 69 134 -12 12 -2812 1634 -2820 1634 -2 0 -41
-55 -85 -122z m2708 -1488 c45 -45 11 -120 -54 -120 -44 0 -80 41 -71 80 13
56 86 79 125 40z"/>
<path d="M38346 18531 c-15 -17 -292 -427 -943 -1398 -140 -208 -174 -266
-170 -285 5 -18 154 -109 709 -430 387 -223 1027 -594 1423 -824 396 -229 728
-419 738 -422 9 -2 24 2 33 9 9 7 153 218 322 468 168 251 418 622 554 826
183 272 248 376 246 394 -3 21 -140 104 -993 598 -1203 696 -1502 869 -1710
990 -88 51 -167 93 -176 93 -9 0 -24 -9 -33 -19z m1444 -901 c734 -425 1339
-776 1344 -780 5 -5 -32 -68 -81 -142 -49 -73 -238 -353 -418 -623 -181 -269
-377 -560 -435 -646 l-105 -156 -245 142 c-327 189 -1657 959 -1890 1094 -102
59 -277 161 -390 226 -113 65 -209 122 -214 126 -8 7 56 104 594 904 144 215
303 452 353 527 l92 136 30 -18 c17 -10 631 -365 1365 -790z"/>
<path d="M36942 16448 c-126 -189 -284 -424 -351 -523 -95 -141 -121 -186
-119 -208 3 -27 85 -76 1193 -717 655 -379 1228 -711 1275 -739 47 -27 150
-87 230 -134 166 -96 180 -102 202 -85 28 23 701 1032 706 1059 2 15 -3 30
-12 38 -8 7 -460 270 -1003 585 -543 315 -1180 683 -1414 819 -252 146 -437
247 -452 247 -22 0 -54 -43 -255 -342z m1652 -563 c751 -434 1365 -793 1366
-797 0 -6 -544 -821 -612 -916 -14 -21 -19 -22 -40 -11 -24 12 -498 286 -1908
1103 -443 257 -806 471 -808 476 -4 11 620 941 629 938 4 -2 622 -358 1373
-793z"/>
<path d="M36378 15603 c-9 -10 -132 -191 -274 -403 -141 -212 -295 -441 -341
-509 -61 -91 -83 -131 -81 -150 3 -23 155 -114 1433 -853 786 -456 1437 -828
1447 -828 23 0 40 24 412 579 246 368 316 479 314 500 -3 23 -149 111 -1432
854 -786 455 -1437 827 -1446 827 -9 0 -24 -8 -32 -17z m1120 -715 c582 -336
1122 -650 1202 -696 80 -46 220 -127 311 -180 l167 -96 -309 -461 c-170 -253
-315 -464 -322 -469 -10 -6 -346 184 -1098 619 -596 346 -1208 700 -1359 787
-151 88 -279 164 -284 169 -6 5 39 80 113 191 68 101 208 310 312 466 105 155
195 282 200 282 6 0 486 -275 1067 -612z"/>
<path d="M35598 14438 c-23 -20 -471 -690 -476 -713 -2 -12 5 -28 15 -36 10
-9 351 -209 758 -444 407 -236 1046 -605 1419 -822 374 -216 684 -393 690
-393 6 0 16 4 22 8 14 9 484 708 484 720 0 22 -40 49 -245 167 -121 70 -276
160 -345 200 -69 40 -523 303 -1010 585 -487 282 -973 563 -1081 626 -108 63
-200 114 -205 114 -6 0 -17 -6 -26 -12z m508 -374 c252 -146 867 -502 1367
-791 499 -289 907 -530 907 -535 0 -11 -355 -545 -380 -572 -17 -18 -33 -9
-526 276 -280 162 -896 519 -1369 793 -473 274 -862 499 -864 501 -4 4 392
593 400 594 3 0 213 -120 465 -266z"/>
<path d="M29701 10566 c-23 -27 -15 -51 63 -191 631 -1129 1431 -2255 2064
-2907 131 -134 147 -145 182 -123 6 3 10 18 10 32 0 18 -34 60 -129 161 -666
706 -1434 1789 -2038 2877 -75 135 -93 160 -114 163 -14 2 -31 -4 -38 -12z"/>
<path d="M31422 9925 c-221 -73 -409 -138 -417 -145 -30 -25 -12 -80 25 -80 9
0 202 61 428 135 442 146 451 150 417 201 -8 13 -23 24 -33 23 -9 -1 -198 -61
-420 -134z"/>
<path d="M31750 9212 c-174 -59 -321 -111 -328 -115 -15 -10 -16 -49 0 -65 7
-7 21 -12 32 -12 25 0 656 208 674 222 15 13 16 50 0 66 -7 7 -23 12 -37 11
-15 0 -168 -49 -341 -107z"/>
<path d="M13486 34638 c-673 -707 -1345 -1578 -1873 -2428 -119 -191 -126
-206 -114 -229 14 -26 48 -32 70 -13 11 10 72 103 137 207 504 814 1199 1717
1822 2366 84 88 96 114 66 143 -26 27 -46 18 -108 -46z"/>
<path d="M10079 32603 c-65 -115 -347 -683 -444 -893 -403 -882 -735 -1803
-970 -2693 -35 -132 -36 -140 -19 -158 21 -24 46 -24 66 -1 8 9 32 82 53 162
117 443 300 1018 471 1476 226 609 436 1087 753 1717 219 436 219 438 154 445
-28 3 -34 -2 -64 -55z"/>
<path d="M11027 31173 c-35 -39 -324 -649 -476 -1006 -574 -1343 -968 -2845
-1111 -4232 -11 -110 -22 -218 -25 -240 -8 -69 -33 -401 -47 -615 -20 -326
-16 -1609 7 -1751 2 -13 6 -78 10 -144 16 -318 72 -821 136 -1245 197 -1288
568 -2568 1091 -3757 82 -185 94 -202 137 -188 37 12 33 41 -22 167 -667 1507
-1084 3118 -1222 4713 -8 99 -17 203 -20 230 -2 28 -7 102 -10 165 -4 63 -9
129 -10 145 -7 56 -20 599 -20 815 0 217 13 794 19 840 2 14 6 81 10 150 4 69
9 148 11 175 3 28 12 129 20 225 162 1822 647 3556 1461 5219 79 162 144 300
144 307 0 18 -29 44 -49 44 -10 0 -25 -8 -34 -17z"/>
<path d="M8492 28278 c-12 -15 -74 -315 -132 -638 -108 -605 -197 -1349 -225
-1890 -4 -63 -8 -133 -10 -155 -16 -167 -27 -758 -21 -1130 4 -236 8 -450 10
-475 2 -25 7 -117 11 -205 3 -88 8 -173 10 -190 2 -16 7 -77 10 -135 15 -274
73 -821 125 -1185 232 -1620 703 -3197 1401 -4690 140 -300 194 -409 212 -424
20 -16 54 -6 68 21 9 16 -8 58 -104 256 -582 1201 -1027 2505 -1296 3797 -185
888 -292 1743 -340 2730 -9 176 -7 1450 3 1510 2 17 7 91 10 165 4 74 9 158
11 185 3 28 10 115 15 195 42 586 151 1362 279 1995 34 166 46 245 40 258 -11
20 -61 23 -77 5z"/>
<path d="M40787 28011 c-98 -99 -114 -130 -85 -159 29 -29 56 -12 152 90 94
101 110 130 84 156 -27 27 -55 11 -151 -87z"/>
<path d="M40120 28092 c-20 -7 -30 -22 -30 -47 0 -28 188 -215 217 -215 27 0
53 34 46 61 -5 19 -172 182 -203 198 -8 5 -22 6 -30 3z"/>
<path d="M40702 27488 c-27 -27 -11 -55 86 -151 104 -103 139 -120 162 -77 18
33 4 54 -99 149 -96 89 -124 104 -149 79z"/>
<path d="M40188 27385 c-54 -58 -98 -111 -98 -119 0 -21 28 -46 51 -46 19 0
190 167 213 207 14 26 -10 63 -41 63 -23 0 -47 -21 -125 -105z"/>
<path d="M19566 18658 c-15 -24 -89 -421 -131 -698 -58 -388 -114 -920 -131
-1230 -3 -69 -7 -126 -8 -127 -2 -2 -1850 -3 -4107 -4 -2419 0 -4140 -5 -4191
-10 -384 -41 -730 -305 -869 -664 -59 -152 -71 -242 -66 -490 5 -242 14 -296
80 -452 91 -214 282 -417 492 -521 44 -22 105 -47 135 -57 30 -10 59 -20 63
-22 5 -3 -31 -25 -80 -48 -191 -94 -313 -237 -384 -450 l-24 -70 -3 -641 c-3
-694 -2 -712 51 -844 56 -137 158 -263 278 -340 l62 -40 -230 0 c-180 0 -239
-3 -274 -15 -164 -56 -223 -266 -115 -408 42 -55 134 -97 212 -97 l64 0 31
-67 c47 -105 97 -255 121 -367 18 -83 22 -134 22 -286 1 -253 -30 -408 -127
-650 l-43 -105 -73 -7 c-91 -10 -149 -36 -199 -93 -117 -133 -61 -353 105
-416 33 -12 634 -14 4226 -17 l4187 -2 0 -189 c0 -206 13 -302 57 -424 57
-159 128 -272 246 -394 182 -187 414 -298 675 -323 151 -14 2508 -13 2644 1
201 21 376 100 515 232 126 120 200 240 249 404 33 110 37 249 19 603 -7 135
-16 308 -19 385 -4 77 -8 178 -11 225 -5 95 -9 162 -30 635 -9 182 -17 353
-19 380 -2 28 -5 60 -5 73 l-1 22 -446 0 c-421 0 -446 1 -439 18 364 918 579
2012 579 2957 1 811 -154 1574 -444 2193 -42 88 -52 102 -73 102 -13 0 -31 -8
-39 -17 -19 -21 -188 -352 -277 -543 -154 -327 -320 -721 -437 -1035 l-49
-130 -12 95 c-103 757 -270 1441 -500 2050 -291 769 -705 1459 -1122 1867 -80
79 -110 90 -135 51z m294 -374 c231 -288 408 -570 600 -954 377 -755 628
-1622 764 -2640 43 -322 44 -284 -12 -465 -174 -557 -262 -952 -324 -1455 -14
-117 -18 -646 -5 -775 31 -322 144 -693 270 -892 15 -24 27 -45 27 -48 0 -3
-101 -5 -225 -5 l-225 0 0 323 c0 335 -11 627 -35 947 -24 318 -49 595 -70
785 -3 22 -9 83 -15 135 -42 406 -158 1275 -231 1733 -115 730 -202 1235 -344
2002 -47 260 -207 1059 -215 1081 -11 29 -45 36 -72 15 l-22 -18 92 -464 c246
-1247 427 -2309 572 -3359 38 -270 102 -775 115 -905 3 -33 10 -94 15 -135 5
-41 12 -102 15 -135 3 -33 12 -130 20 -215 17 -182 42 -487 50 -615 3 -49 8
-121 10 -160 12 -164 24 -703 18 -853 l-6 -162 -142 0 -141 0 -14 68 c-24 122
-99 433 -146 601 -141 510 -296 927 -504 1357 l-92 189 -39 250 c-59 378 -114
861 -139 1215 -5 85 -12 180 -15 210 -16 196 -27 760 -21 1100 4 212 9 403 10
425 2 22 6 94 10 160 4 66 11 176 16 245 6 69 13 159 16 200 25 338 104 908
195 1410 l12 65 65 -70 c35 -39 108 -125 162 -191z m-575 -1921 c-4 -76 -8
-139 -9 -140 -2 -2 -765 -3 -1697 -4 -1874 -1 -1764 3 -1908 -66 -104 -49
-215 -161 -264 -264 -60 -125 -62 -140 -62 -419 0 -253 0 -256 28 -335 52
-149 154 -269 287 -339 141 -74 67 -69 1230 -73 574 -2 1046 -5 1047 -7 1 -1
13 -64 26 -139 l24 -137 -3451 0 c-2402 0 -3478 3 -3541 11 -373 44 -689 309
-799 669 -39 128 -46 188 -42 385 5 208 22 296 85 431 50 106 101 183 174 261
142 151 353 263 552 292 33 5 1920 9 4194 10 l4133 1 -7 -137z m2905 -340
c154 -374 258 -768 320 -1218 20 -145 21 -153 40 -400 12 -164 4 -753 -14
-955 -62 -697 -204 -1357 -441 -2049 -37 -106 -81 -228 -99 -270 l-32 -76
-147 -3 -147 -3 0 214 c0 193 11 499 25 697 24 345 55 732 69 865 3 22 7 67
10 100 8 77 45 438 51 490 2 22 11 101 20 175 26 237 45 391 96 790 51 405 57
442 130 954 l62 430 -22 17 c-21 17 -56 15 -67 -3 -4 -6 -13 -51 -20 -101 -34
-222 -84 -571 -98 -677 -9 -63 -22 -164 -30 -225 -23 -175 -76 -576 -81 -620
-3 -22 -16 -132 -29 -245 -48 -392 -101 -895 -131 -1230 -28 -321 -37 -435
-50 -620 -8 -118 -17 -291 -21 -385 -3 -93 -8 -190 -9 -215 -2 -25 -3 -127 -4
-227 l-1 -183 -134 0 -135 0 -19 28 c-36 49 -130 235 -161 316 -56 146 -101
324 -127 505 -18 121 -28 642 -14 756 4 39 11 102 14 140 16 173 79 531 136
771 167 702 475 1531 872 2346 67 136 124 245 128 243 4 -3 31 -62 60 -132z
m-2914 -173 l-1 -270 -1115 0 c-855 0 -1119 -3 -1128 -12 -7 -7 -12 -21 -12
-33 0 -12 5 -26 12 -33 9 -9 274 -12 1130 -12 l1118 0 0 -117 c0 -65 3 -135 6
-155 l7 -38 -846 0 c-505 0 -856 -4 -870 -9 -34 -13 -44 -47 -21 -72 17 -18
40 -19 875 -19 l857 0 6 -62 c3 -35 7 -93 10 -130 l4 -68 -531 0 -531 0 -128
65 c-173 87 -203 85 -196 -15 l3 -50 -1011 0 c-682 0 -1030 4 -1070 11 -182
33 -341 183 -389 364 -11 44 -15 113 -15 275 0 241 8 291 63 394 59 112 180
206 308 240 46 13 303 15 1760 15 l1706 1 -1 -270z m-1189 -1056 c26 -15 98
-60 160 -100 771 -510 1424 -1546 1809 -2871 72 -249 184 -710 184 -758 0 -13
-20 -15 -125 -15 -121 0 -125 1 -130 23 -48 201 -84 340 -121 466 -215 730
-650 1633 -1160 2408 -104 158 -127 180 -159 159 -11 -7 -21 -22 -23 -33 -2
-12 42 -88 111 -194 491 -750 899 -1590 1121 -2305 41 -132 136 -493 136 -516
0 -5 -82 -7 -182 -6 l-183 3 -43 65 c-23 36 -91 146 -151 245 -563 935 -970
1895 -1186 2800 -34 139 -97 469 -110 570 -3 28 -8 58 -11 68 -7 23 7 22 63
-9z m1229 -81 c0 -5 3 -60 8 -123 4 -63 9 -123 12 -132 5 -17 -14 -18 -303
-18 l-309 0 -79 71 c-44 40 -119 102 -168 140 -81 63 -85 68 -60 71 59 7 898
-2 899 -9z m-1283 -486 c9 -45 20 -92 23 -104 l6 -23 -2458 0 c-2156 0 -2467
-2 -2523 -15 -191 -45 -346 -198 -396 -391 -23 -88 -22 -1019 1 -1107 38 -147
150 -288 276 -347 136 -64 -68 -60 3008 -60 l2805 0 52 -104 c43 -86 49 -105
36 -108 -9 -2 -1797 -1 -3972 2 l-3956 5 -65 23 c-209 76 -360 240 -416 451
-11 44 -14 176 -14 696 -1 625 0 643 21 711 70 231 262 404 494 447 48 9 929
11 3562 9 l3499 -2 17 -83z m1289 83 c29 0 30 -5 43 -142 l7 -68 -168 0 -167
0 -36 42 c-20 24 -60 69 -88 100 -29 32 -53 61 -53 65 0 5 98 7 217 6 120 -2
230 -3 245 -3z m-31 -309 l95 -1 13 -113 c6 -63 15 -123 18 -135 5 -21 2 -22
-50 -22 l-56 0 -70 98 c-38 53 -81 112 -95 131 -14 19 -23 37 -21 41 2 3 19 5
37 4 18 -1 76 -3 129 -3z m-1181 -88 c13 -49 47 -166 77 -262 29 -96 53 -178
53 -183 0 -4 -407 -8 -905 -8 -863 0 -905 -1 -914 -18 -7 -12 -6 -26 2 -43
l13 -24 921 -3 921 -2 18 -53 c9 -28 45 -128 80 -221 35 -93 64 -173 64 -177
0 -5 -334 -9 -743 -9 -565 0 -746 -3 -755 -12 -7 -7 -12 -21 -12 -33 0 -12 5
-26 12 -33 9 -9 196 -12 779 -12 l768 0 7 -22 c10 -34 141 -331 185 -422 22
-44 39 -83 39 -88 0 -4 -1257 -8 -2794 -8 -2690 0 -2796 1 -2854 18 -80 26
-166 84 -212 146 -93 125 -91 110 -91 695 0 568 0 562 72 671 59 87 155 156
254 180 17 5 1146 8 2511 9 l2481 1 23 -87z m1325 -295 c2 -7 6 -35 10 -63 l6
-50 -35 58 c-20 32 -36 60 -36 63 0 10 51 3 55 -8z m-405 -1925 c81 -146 311
-535 364 -615 l18 -28 -386 0 -386 0 0 -765 0 -765 -4175 0 c-3485 0 -4181 2
-4208 14 -50 20 -95 78 -103 131 -9 62 26 131 82 162 l39 23 2368 0 c2622 0
2444 -4 2592 64 168 79 287 210 353 391 25 68 26 79 30 349 4 321 -3 374 -70
507 -98 196 -292 330 -519 359 -56 7 -861 10 -2424 10 -2317 0 -2340 0 -2373
20 -37 23 -69 71 -78 118 -8 40 17 110 50 141 57 53 -230 50 4417 51 l4317 0
92 -167z m-3938 -282 c42 -11 98 -31 125 -45 126 -64 237 -196 284 -337 23
-71 24 -85 24 -339 0 -246 -2 -270 -22 -335 -62 -194 -215 -341 -408 -390 -52
-13 -332 -15 -2327 -15 -1247 0 -2268 2 -2268 4 0 2 15 44 34 92 19 49 42 115
52 147 l18 57 1527 0 c1375 0 1529 2 1543 16 21 20 20 43 -1 66 -15 17 -76 18
-1530 18 -832 0 -1513 3 -1513 8 0 4 7 48 15 97 8 50 15 120 15 157 0 36 3 73
6 82 6 14 123 16 1230 16 1206 0 1224 0 1244 20 19 19 18 40 -3 68 -7 9 -268
12 -1243 12 l-1234 0 -1 23 c-4 122 -67 372 -130 520 -16 38 -29 71 -29 73 0
2 1016 4 2258 4 2201 0 2261 0 2334 -19z"/>
<path d="M35810 12022 c-8 -3 -71 -53 -141 -113 -288 -245 -748 -602 -1086
-843 -109 -77 -123 -91 -123 -116 0 -33 28 -54 57 -43 10 4 99 65 198 136 329
237 620 463 958 745 170 142 198 169 195 190 -3 28 -35 53 -58 44z"/>
<path d="M33636 10954 c-50 -53 -95 -103 -100 -111 -14 -25 10 -63 40 -63 20
0 47 22 118 96 50 53 94 105 98 114 9 24 -18 60 -44 60 -13 0 -54 -35 -112
-96z"/>
<path d="M32940 11011 c-5 -11 -10 -26 -10 -33 0 -7 44 -57 98 -111 75 -75
104 -97 124 -97 26 0 48 23 48 51 0 6 -44 56 -97 110 -76 78 -103 99 -125 99
-17 0 -31 -7 -38 -19z"/>
<path d="M33545 10416 c-12 -18 -14 -30 -7 -43 14 -24 197 -203 208 -203 21 0
54 33 54 54 0 30 -188 216 -218 216 -12 0 -29 -11 -37 -24z"/>
<path d="M33036 10328 c-95 -100 -111 -129 -84 -156 28 -28 55 -12 151 87 97
100 113 131 85 159 -28 28 -56 12 -152 -90z"/>
<path d="M29450 8605 c-130 -39 -645 -170 -820 -210 -1021 -230 -1942 -352
-3070 -405 -189 -9 -1316 -4 -1492 6 -117 7 -138 1 -138 -41 0 -48 20 -51 365
-62 500 -15 1429 -3 1665 22 19 2 80 6 135 10 889 54 1974 226 2910 461 219
55 577 154 605 167 28 14 38 50 20 73 -18 21 -51 17 -180 -21z"/>
</g>
</svg>
